<svg version="1.2" xmlns="http://www.w3.org/2000/svg" viewBox="0 0 1385 1386" width="1385" height="1386">
	<title>symfff-svg</title>
	<style>
		.s0 { fill: #1a171b } 
		.s1 { fill: #ffffff } 
	</style>
	<path id="Layer" class="s0" d="m692.5 1385.2c-383 0-692.5-309.4-692.5-692.2 0-382.7 309.5-692.1 692.5-692.1 382.9 0 692.5 309.4 692.5 692.1 0 382.8-309.6 692.2-692.5 692.2z"/>
	<path id="Layer" class="s1" d="m995.2 257c-70.3 2.4-131.7 41.2-177.4 94.8-50.6 58.8-84.3 128.5-108.6 199.7-43.4-35.6-76.8-81.6-146.5-101.7-53.8-15.4-110.3-9-162.3 29.7-24.6 18.4-41.6 46.1-49.6 72.3-20.9 67.9 21.9 128.3 41.4 150l42.5 45.5c8.8 9 29.9 32.3 19.6 65.7-11.2 36.3-55 59.9-99.9 46-20.1-6.1-49-21.1-42.5-42.1 2.7-8.6 8.8-15.1 12.1-22.5 3.1-6.4 4.5-11.2 5.4-14 8.3-26.8-3-61.7-31.7-70.6-26.8-8.2-54.2-1.7-64.8 32.8-12.1 39.2 6.7 110.3 107.1 141.3 117.8 36.1 217.3-28 231.5-111.5 8.9-52.3-14.8-91.2-58.1-141.2l-35.3-39c-21.4-21.4-28.7-57.8-6.6-85.7 18.7-23.6 45.3-33.7 88.8-21.8 63.6 17.2 91.9 61.3 139.2 96.8-19.5 64-32.3 128.3-43.8 185.9l-7.1 42.9c-33.8 177.2-59.6 274.5-126.6 330.4-13.5 9.6-32.8 23.9-61.9 24.9-15.3 0.5-20.2-10-20.4-14.6-0.4-10.7 8.7-15.6 14.6-20.4 9-4.9 22.6-13 21.6-38.9-0.9-30.7-26.4-57.3-63.1-56.1-27.5 1-69.5 26.9-67.9 74.2 1.7 49 47.3 85.7 116.1 83.3 36.8-1.2 118.9-16.2 199.9-112.4 94.2-110.2 120.6-236.6 140.4-329.1l22.1-122.2c12.3 1.5 25.4 2.5 39.7 2.8 117.4 2.5 176.1-58.3 177-102.5 0.5-26.7-17.6-53-43-52.4-18.2 0.5-41 12.6-46.5 37.7-5.3 24.7 37.4 46.9 4 68.5-23.7 15.3-66.2 26.2-126.1 17.4l10.9-60.2c22.2-114 49.6-254.2 153.6-257.6 7.5-0.4 35.2 0.3 35.9 18.6 0.2 6.2-1.3 7.7-8.5 21.7-7.3 10.9-10.1 20.2-9.7 30.9 1 29.1 23.1 48.3 55.2 47.1 42.9-1.4 55.2-43.1 54.5-64.5-1.7-50.4-54.9-82.2-125.2-79.9z"/>
</svg>